Normalized EMG Linear Envelopes
nRows=134
nColumns=4

endheader
time	 med_gas_r	  soleus_r	 tib_ant_r	
3.37478	  0.063735	  0.075057	  0.025640	
3.43728	  0.063535	  0.074987	  0.025745	
3.49978	  0.062820	  0.074387	  0.025451	
3.56227	  0.061879	  0.072700	  0.024626	
3.62477	  0.061238	  0.070308	  0.023469	
3.68726	  0.061176	  0.068515	  0.022509	
3.74976	  0.061812	  0.068047	  0.022378	
3.81226	  0.062811	  0.068469	  0.023251	
3.87475	  0.063294	  0.069078	  0.024549	
3.93725	  0.062553	  0.069668	  0.025570	
3.99974	  0.060633	  0.070416	  0.026233	
4.06224	  0.058772	  0.071242	  0.026836	
4.12474	  0.060270	  0.071644	  0.027359	
4.18723	  0.070863	  0.071974	  0.027496	
4.24973	  0.096197	  0.075196	  0.027302	
4.31222	  0.137643	  0.086492	  0.027400	
4.37472	  0.192656	  0.110174	  0.028832	
4.43722	  0.259195	  0.146849	  0.032993	
4.49971	  0.337906	  0.193701	  0.041212	
4.56221	  0.430426	  0.249206	  0.053999	
4.6247	  0.530409	  0.315889	  0.070550	
4.6872	  0.613904	  0.389471	  0.088530	
4.7497	  0.653091	  0.448033	  0.104775	
4.81219	  0.644367	  0.469669	  0.116906	
4.87469	  0.609602	  0.459808	  0.123771	
4.93718	  0.573461	  0.444030	  0.124763	
4.99968	  0.550044	  0.438176	  0.120335	
5.06218	  0.540114	  0.441159	  0.112745	
5.12467	  0.533229	  0.449285	  0.105064	
5.18717	  0.520011	  0.459678	  0.099679	
5.24966	  0.501024	  0.466178	  0.097270	
5.31216	  0.481132	  0.464322	  0.096259	
5.37466	  0.465292	  0.453892	  0.094193	
5.43715	  0.461221	  0.436711	  0.090533	
5.49965	  0.473565	  0.417483	  0.086931	
5.56214	  0.495167	  0.399391	  0.084673	
5.62464	  0.514158	  0.380872	  0.083719	
5.68714	  0.527147	  0.363945	  0.084146	
5.74963	  0.540487	  0.356862	  0.086119	
5.81213	  0.561517	  0.364721	  0.088727	
5.87462	  0.587061	  0.385458	  0.091142	
5.93712	  0.601737	  0.413263	  0.093534	
5.99962	  0.594274	  0.439502	  0.095223	
6.06211	  0.569311	  0.454762	  0.094596	
6.12461	  0.538171	  0.455946	  0.091742	
6.1871	  0.509051	  0.448763	  0.088621	
6.2496	  0.488699	  0.440698	  0.086600	
6.3121	  0.484015	  0.434050	  0.085365	
6.37459	  0.498131	  0.427105	  0.084048	
6.43709	  0.525707	  0.419288	  0.082815	
6.49958	  0.554787	  0.412437	  0.082967	
6.56208	  0.574415	  0.409332	  0.085618	
6.62458	  0.580001	  0.413803	  0.090720	
6.68707	  0.574960	  0.426977	  0.096502	
6.74957	  0.567085	  0.439760	  0.099707	
6.81206	  0.560586	  0.437059	  0.098459	
6.87456	  0.553943	  0.414468	  0.094476	
6.93706	  0.544062	  0.385921	  0.090365	
6.99955	  0.530170	  0.373468	  0.086667	
7.06205	  0.517444	  0.391012	  0.083427	
7.12454	  0.514499	  0.433587	  0.081949	
7.18704	  0.521731	  0.478883	  0.083247	
7.24954	  0.528727	  0.502814	  0.086386	
7.31203	  0.528507	  0.497294	  0.089220	
7.37453	  0.526857	  0.472870	  0.090299	
7.43702	  0.534069	  0.445242	  0.089783	
7.49952	  0.553412	  0.421744	  0.088622	
7.56202	  0.578744	  0.402273	  0.087576	
7.62451	  0.597701	  0.390577	  0.086914	
7.68701	  0.598985	  0.395686	  0.085924	
7.7495	  0.581994	  0.420284	  0.083571	
7.812	  0.557038	  0.457358	  0.080607	
7.8745	  0.537267	  0.499025	  0.079383	
7.93699	  0.533463	  0.540586	  0.081180	
7.99949	  0.550314	  0.576811	  0.085071	
8.06198	  0.583830	  0.599057	  0.089210	
8.12448	  0.621951	  0.600350	  0.092545	
8.18698	  0.646643	  0.584882	  0.095054	
8.24947	  0.646199	  0.564119	  0.096720	
8.31197	  0.630289	  0.543934	  0.097069	
8.37446	  0.618554	  0.526555	  0.095404	
8.43696	  0.616583	  0.518687	  0.091667	
8.49946	  0.615345	  0.526593	  0.087713	
8.56195	  0.605826	  0.548628	  0.086323	
8.62445	  0.589557	  0.578179	  0.088296	
8.68694	  0.577961	  0.610250	  0.091865	
8.74944	  0.579229	  0.641405	  0.094817	
8.81194	  0.592018	  0.665104	  0.096046	
8.87443	  0.613689	  0.670720	  0.095569	
8.93693	  0.644362	  0.650589	  0.094072	
8.99942	  0.678934	  0.613188	  0.092212	
9.06192	  0.699577	  0.583223	  0.090068	
9.12442	  0.687636	  0.575703	  0.087669	
9.18691	  0.645603	  0.579230	  0.085516	
9.24941	  0.595788	  0.576217	  0.084130	
9.3119	  0.559736	  0.564080	  0.083496	
9.3744	  0.544412	  0.550338	  0.082942	
9.4369	  0.540346	  0.540763	  0.081783	
9.49939	  0.533484	  0.532634	  0.080048	
9.56189	  0.520095	  0.515109	  0.077847	
9.62438	  0.502267	  0.478873	  0.074802	
9.68688	  0.476759	  0.423550	  0.070842	
9.74938	  0.442027	  0.355820	  0.066662	
9.81187	  0.406627	  0.284543	  0.062943	
9.87437	  0.380576	  0.218093	  0.059695	
9.93686	  0.365439	  0.164181	  0.056931	
9.99936	  0.353492	  0.128066	  0.055432	
10.0619	  0.333868	  0.108921	  0.055978	
10.1244	  0.303337	  0.100597	  0.058193	
10.1868	  0.269965	  0.096362	  0.060805	
10.2493	  0.246260	  0.092599	  0.063059	
10.3118	  0.239745	  0.089670	  0.065181	
10.3743	  0.247653	  0.089071	  0.067093	
10.4368	  0.261649	  0.090050	  0.067989	
10.4993	  0.274291	  0.090266	  0.067661	
10.5618	  0.279543	  0.088532	  0.066862	
10.6243	  0.274926	  0.085822	  0.066364	
10.6868	  0.262654	  0.083974	  0.066366	
10.7493	  0.246827	  0.083726	  0.066016	
10.8118	  0.232879	  0.084732	  0.063607	
10.8743	  0.224239	  0.086899	  0.058333	
10.9368	  0.218928	  0.089812	  0.051188	
10.9993	  0.215796	  0.091545	  0.043908	
11.0618	  0.216677	  0.090341	  0.038027	
11.1243	  0.218066	  0.086767	  0.034355	
11.1868	  0.212629	  0.082543	  0.032808	
11.2493	  0.201239	  0.078727	  0.033030	
11.3118	  0.192110	  0.075996	  0.034294	
11.3743	  0.188672	  0.074803	  0.035021	
11.4368	  0.188604	  0.074847	  0.034084	
11.4993	  0.190327	  0.075463	  0.032012	
11.5618	  0.190867	  0.075886	  0.029733	
11.6243	  0.184602	  0.075107	  0.027340	
11.6868	  0.170924	  0.072911	  0.024698	
